DBRep_DrawableShape

CASCADE Topology V1, (c) Matra-Datavision
Locations 0
Curve2ds 0
Curves 42
1 8.0000000000000036 4 6 0 0 -1 
1 8.0000000000000036 4 6 -1 0 1.0842021724855044e-16 
1 -7.9999999999999964 4 6.0000000000000018 0 0 -1 
1 8.0000000000000036 4 -5.9999999999999991 -1 0 5.4210108624275222e-17 
1 12 4 15.999999999999996 -0 -0 1 
1 28 4 7.9999999999999964 -1 0 1.0842021724855044e-16 
1 28 4 15.999999999999996 0 0 -1 
1 28 4 -16.000000000000004 -1 0 1.2390881971262908e-16 
1 -12 4 -15.999999999999996 -0 -0 -1 
1 -28 4 -7.9999999999999964 1 0 0 
1 -28 4 16.000000000000004 -0 -0 1 
1 28 4 15.999999999999996 1 -0 -1.2390881971262908e-16 
1 -28 -4 16.000000000000004 -0 -0 1 
1 -28 4 16.000000000000004 -0 -1 -0 
1 -28 16 -7.9999999999999964 -0 -1 -0 
1 -28 16 -15.999999999999996 0 0 1 
1 -28 4 -15.999999999999996 -0 -1 -0 
1 28 -4 15.999999999999996 1 -0 -1.2390881971262908e-16 
1 28 4 15.999999999999996 -0 -1 -0 
1 28 16 15.999999999999996 1 -0 -0 
1 12 16 15.999999999999996 -0 -1 -0 
1 28 -4 15.999999999999996 0 0 -1 
1 28 4 -16.000000000000004 -0 -1 -0 
1 28 16 7.9999999999999964 -0 -1 -0 
1 28 16 15.999999999999996 0 0 -1 
1 28 -4 -16.000000000000004 -1 0 1.2390881971262908e-16 
1 -28 16 -15.999999999999996 -1 -0 -0 
1 -12 16 -15.999999999999996 -0 -1 -0 
1 6.5052130349130276e-16 -4 6.0000000000000009 -1 0 1.0842021724855044e-16 
1 8.0000000000000036 -4 0 0 0 -1 
1 -3.2526065174565123e-16 -4 -5.9999999999999982 -1 0 5.4210108624275222e-17 
1 -7.9999999999999964 -4 0 0 0 -1 
1 -12 16 -7.9999999999999964 -0 -1 -0 
1 -28 16 -7.9999999999999964 1 0 0 
1 -12 16 -15.999999999999996 -0 -0 -1 
1 12 16 7.9999999999999982 -0 -1 -0 
1 28 16 7.9999999999999964 -1 0 1.0842021724855044e-16 
1 12 16 15.999999999999996 -0 -0 1 
1 8.0000000000000036 -28 6 -0 1 -0 
1 8.0000000000000036 -28 -5.9999999999999991 -0 1 -0 
1 -7.9999999999999964 -28 6.0000000000000018 -0 1 -0 
1 -7.9999999999999964 -28 -5.9999999999999982 -0 1 -0 
Polygon3D 0
PolygonOnTriangulations 0
Surfaces 16
1 0 4 0 0 1 0 0 -0 1 1 0 -0 
1 8.0000000000000036 -28 6 1 0 0 0 0 -1 -0 1 0 
1 8.0000000000000036 -28 6 -1.0842021724855044e-16 0 -1 -1 0 1.0842021724855044e-16 0 1 0 
1 -7.9999999999999964 -28 6.0000000000000018 1 0 0 0 0 -1 -0 1 0 
1 8.0000000000000036 -28 -5.9999999999999991 -5.4210108624275222e-17 0 -1 -1 0 5.4210108624275222e-17 0 1 0 
1 12 16 15.999999999999996 1 -0 0 0 0 -1 0 1 0 
1 28 16 7.9999999999999964 1.0842021724855044e-16 -0 1 1 0 -1.0842021724855044e-16 0 1 0 
1 28 4 15.999999999999996 -1 0 0 0 0 1 0 1 -0 
1 28 4 -16.000000000000004 1.2390881971262911e-16 -0 1 1 0 -1.2390881971262911e-16 0 1 0 
1 -12 16 -15.999999999999996 -1 0 0 0 0 1 0 1 -0 
1 -28 16 -7.9999999999999964 0 0 -1 -1 0 -0 0 1 0 
1 -28 4 16.000000000000004 1 -0 0 0 0 -1 0 1 0 
1 28 4 15.999999999999996 -1.2390881971262911e-16 0 -1 -1 0 1.2390881971262911e-16 0 1 0 
1 0 -4 0 0 1 0 0 -0 1 1 0 -0 
1 0 16 0 0 1 0 0 -0 1 1 0 -0 
1 0 16 0 0 1 0 0 -0 1 1 0 -0 
Triangulations 0

TShapes 107
Ve
1e-07
8 4 6
0 0

0101101
*
Ve
1e-07
8 4 -6
0 0

0101101
*
Ed
 1e-07 1 1 0
1  1 0 0 12
4 C0 1 0 2 0
0

0101000
+107 0 -106 0 *
Ve
1e-07
-8 4 6
0 0

0101101
*
Ed
 1e-07 1 1 0
1  2 0 0 16
4 C0 1 0 3 0
0

0101000
+107 0 -104 0 *
Ve
1e-07
-8 4 -6
0 0

0101101
*
Ed
 1e-07 1 1 0
1  3 0 0 12
4 C0 1 0 4 0
0

0101000
+104 0 -102 0 *
Ed
 1e-07 1 1 0
1  4 0 0 16
4 C0 1 0 5 0
0

0101000
+106 0 -102 0 *
Wi

0101100
-105 0 +103 0 +101 0 -100 0 *
Ve
1e-07
12 4 8
0 0

0101101
*
Ve
1e-07
12 4 16
0 0

0101101
*
Ed
 1e-07 1 1 0
1  5 0 -8 3.5527136788005e-15
4 C0 1 0 6 0
0

0101000
+98 0 -97 0 *
Ve
1e-07
28 4 8
0 0

0101101
*
Ed
 1e-07 1 1 0
1  6 0 0 16
4 C0 1 0 7 0
0

0101000
+95 0 -98 0 *
Ve
1e-07
28 4 -16
0 0

0101101
*
Ed
 1e-07 1 1 0
1  7 0 8 32
4 C0 1 0 8 0
0

0101000
+95 0 -93 0 *
Ve
1e-07
-12 4 -16
0 0

0101101
*
Ed
 1e-07 1 1 0
1  8 0 0 40
4 C0 1 0 9 0
0

0101000
+93 0 -91 0 *
Ve
1e-07
-12 4 -8
0 0

0101101
*
Ed
 1e-07 1 1 0
1  9 0 -8 3.5527136788005e-15
4 C0 1 0 10 0
0

0101000
+89 0 -91 0 *
Ve
1e-07
-28 4 -8
0 0

0101101
*
Ed
 1e-07 1 1 0
1  10 0 0 16
4 C0 1 0 11 0
0

0101000
+87 0 -89 0 *
Ve
1e-07
-28 4 16
0 0

0101101
*
Ed
 1e-07 1 1 0
1  11 0 -24 0
4 C0 1 0 12 0
0

0101000
+87 0 -85 0 *
Ed
 1e-07 1 1 0
1  12 0 -56 -16
4 C0 1 0 13 0
0

0101000
+85 0 -97 0 *
Wi

0101100
-96 0 -94 0 +92 0 +90 0 -88 0 -86 0 +84 0 +83 0 *
Fa
0  1e-07 1 0

0111000
+99 0 +82 0 *
Ve
1e-07
-28 -4 -16
0 0

0101101
*
Ve
1e-07
-28 -4 16
0 0

0101101
*
Ed
 1e-07 1 1 0
1  13 0 -32 0
4 C0 12 0 14 0
0

0101000
+80 0 -79 0 *
Ed
 1e-07 1 1 0
1  14 0 -0 8
4 C0 12 0 13 0
0

0101000
+85 0 -79 0 *
Ve
1e-07
-28 16 -8
0 0

0101101
*
Ed
 1e-07 1 1 0
1  15 0 -0 12
4 C0 12 0 11 0
0

0101000
+76 0 -87 0 *
Ve
1e-07
-28 16 -16
0 0

0101101
*
Ed
 1e-07 1 1 0
1  16 0 0 8
4 C0 12 0 15 0
0

0101000
+74 0 -76 0 *
Ed
 1e-07 1 1 0
1  17 0 -12 8
4 C0 12 0 9 0
0

0101000
+74 0 -80 0 *
Wi

0101100
+78 0 -77 0 -84 0 -75 0 -73 0 +72 0 *
Fa
0  1e-07 12 0

0111000
-71 0 *
Ve
1e-07
28 -4 16
0 0

0101101
*
Ed
 1e-07 1 1 0
1  18 0 -56 0
4 C0 13 0 14 0
0

0101000
+79 0 -69 0 *
Ve
1e-07
28 16 16
0 0

0101101
*
Ed
 1e-07 1 1 0
1  19 0 -12 8
4 C0 13 0 8 0
0

0101000
+67 0 -69 0 *
Ve
1e-07
12 16 16
0 0

0101101
*
Ed
 1e-07 1 1 0
1  20 0 -16 0
4 C0 13 0 16 0
0

0101000
+65 0 -67 0 *
Ed
 1e-07 1 1 0
1  21 0 -0 12
4 C0 13 0 6 0
0

0101000
+65 0 -97 0 *
Wi

0101100
+68 0 -66 0 -64 0 +63 0 -83 0 +77 0 *
Fa
0  1e-07 13 0

0111000
-62 0 *
Ve
1e-07
28 -4 -16
0 0

0101101
*
Ed
 1e-07 1 1 0
1  22 0 0 32
4 C0 8 0 14 0
0

0101000
+69 0 -60 0 *
Ed
 1e-07 1 1 0
1  23 0 -0 8
4 C0 8 0 9 0
0

0101000
+93 0 -60 0 *
Ve
1e-07
28 16 8
0 0

0101101
*
Ed
 1e-07 1 1 0
1  24 0 -0 12
4 C0 8 0 7 0
0

0101000
+57 0 -95 0 *
Ed
 1e-07 1 1 0
1  25 0 0 8
4 C0 8 0 16 0
0

0101000
+67 0 -57 0 *
Wi

0101100
+59 0 -58 0 -92 0 -56 0 -55 0 +66 0 *
Fa
0  1e-07 8 0

0111000
-54 0 *
Ed
 1e-07 1 1 0
1  26 0 0 56
4 C0 9 0 14 0
0

0101000
+60 0 -80 0 *
Ve
1e-07
-12 16 -16
0 0

0101101
*
Ed
 1e-07 1 1 0
1  27 0 -16 -0
4 C0 9 0 15 0
0

0101000
+51 0 -74 0 *
Ed
 1e-07 1 1 0
1  28 0 -0 12
4 C0 9 0 10 0
0

0101000
+51 0 -91 0 *
Wi

0101100
+52 0 -72 0 -50 0 +49 0 -90 0 +58 0 *
Fa
0  1e-07 9 0

0111000
-48 0 *
Ve
1e-07
8 -4 6
0 0

0101101
*
Ve
1e-07
-8 -4 6
0 0

0101101
*
Ed
 1e-07 1 1 0
1  29 0 -8 8
4 C0 14 0 3 0
0

0101000
+46 0 -45 0 *
Ve
1e-07
8 -4 -6
0 0

0101101
*
Ed
 1e-07 1 1 0
1  30 0 -6 6
4 C0 14 0 2 0
0

0101000
+46 0 -43 0 *
Ve
1e-07
-8 -4 -6
0 0

0101101
*
Ed
 1e-07 1 1 0
1  31 0 -8 8
4 C0 14 0 5 0
0

0101000
+43 0 -41 0 *
Ed
 1e-07 1 1 0
1  32 0 -6 6
4 C0 14 0 4 0
0

0101000
+45 0 -41 0 *
Wi

0101100
-44 0 +42 0 +40 0 -39 0 *
Wi

0101100
-78 0 -52 0 -59 0 -68 0 *
Fa
0  1e-07 14 0

0111000
-38 0 -37 0 *
Ve
1e-07
-12 16 -8
0 0

0101101
*
Ed
 1e-07 1 1 0
1  33 0 -0 12
4 C0 11 0 10 0
0

0101000
+35 0 -89 0 *
Ed
 1e-07 1 1 0
1  34 0 0 16
4 C0 11 0 15 0
0

0101000
+76 0 -35 0 *
Wi

0101100
+86 0 -34 0 -33 0 +75 0 *
Fa
0  1e-07 11 0

0111000
-32 0 *
Ed
 1e-07 1 1 0
1  35 0 -8 -0
4 C0 10 0 15 0
0

0101000
+35 0 -51 0 *
Wi

0101100
+88 0 -49 0 -30 0 +34 0 *
Fa
0  1e-07 10 0

0111000
-29 0 *
Wi

0101100
+73 0 +33 0 +30 0 +50 0 *
Fa
0  1e-07 15 0

0111000
+27 0 *
Ve
1e-07
12 16 8
0 0

0101101
*
Ed
 1e-07 1 1 0
1  36 0 -0 12
4 C0 7 0 6 0
0

0101000
+25 0 -98 0 *
Ed
 1e-07 1 1 0
1  37 0 0 16
4 C0 7 0 16 0
0

0101000
+57 0 -25 0 *
Wi

0101100
+94 0 -24 0 -23 0 +56 0 *
Fa
0  1e-07 7 0

0111000
-22 0 *
Ed
 1e-07 1 1 0
1  38 0 -8 0
4 C0 6 0 16 0
0

0101000
+25 0 -65 0 *
Wi

0101100
+96 0 -63 0 -20 0 +24 0 *
Fa
0  1e-07 6 0

0111000
-19 0 *
Wi

0101100
+55 0 +23 0 +20 0 +64 0 *
Fa
0  1e-07 16 0

0111000
+17 0 *
Ed
 1e-07 1 1 0
1  39 0 24 32
4 C0 2 0 3 0
0

0101000
+46 0 -107 0 *
Ed
 1e-07 1 1 0
1  40 0 24 32
4 C0 2 0 5 0
0

0101000
+43 0 -106 0 *
Wi

0101100
+15 0 +105 0 -14 0 -42 0 *
Fa
0  1e-07 2 0

0111000
-13 0 *
Ed
 1e-07 1 1 0
1  41 0 24 32
4 C0 3 0 4 0
0

0101000
+45 0 -104 0 *
Wi

0101100
+44 0 +11 0 -103 0 -15 0 *
Fa
0  1e-07 3 0

0111000
+10 0 *
Ed
 1e-07 1 1 0
1  42 0 24 32
4 C0 4 0 5 0
0

0101000
+41 0 -102 0 *
Wi

0101100
+39 0 +8 0 -101 0 -11 0 *
Fa
0  1e-07 4 0

0111000
+7 0 *
Wi

0101100
+14 0 +100 0 -8 0 -40 0 *
Fa
0  1e-07 5 0

0111000
-5 0 *
Sh

0101100
+81 0 -70 0 -61 0 -53 0 -47 0 -36 0 -31 0 -28 0 +26 0 -21 0 
-18 0 +16 0 -12 0 +9 0 +6 0 -4 0 *
So

0100000
+3 0 *
Co

1100000
+2 0 *

+1 0 