DBRep_DrawableShape

CASCADE Topology V1, (c) Matra-Datavision
Locations 0
Curve2ds 8
1 6.2831853071795862 0 0 1 
1 0 0 0 1 
1 0 50 1 0 
1 3.1415926535897931 0 0 1 
1 3.1415926535897931 0 0 1 
1 0 15 1 0 
1 0 15 1 0 
1 0 50 1 0 
Curves 43
1 27.500000000000007 35 -50 -0 -0 1 
2 10.000000000000005 35 0 0 0 1 1 0 -0 -0 1 0 17.5
1 -7.4999999999999964 35 -50 -0 -0 1 
2 10.000000000000005 35 -35 0 -0 1 1 0 0 -0 1 0 17.5
1 -15 10 0 0 0 -1 
1 -15 10 -15.000000000000004 -1 0 0 
1 -35 10 35 -0 -0 1 
1 -35 10 35 1 0 0 
1 -15.000000000000004 10 35 0 0 -1 
1 15.000000000000002 10 15.000000000000002 1 -0 -5.7824115865893562e-17 
1 15.000000000000004 10 35 8.6736173798840342e-17 -0 1 
1 35 10 35 1 -0 -0 
1 35 10 35 0 0 -1 
1 35 10 0 -1 0 0 
1 -15 60.000000000000007 0 0 0 -1 
1 -15 10 -15.000000000000004 -0 -1 -0 
1 -15 10 0 0 1 0 
1 -35 -10 35 -0 -0 1 
1 -35 10 35 -0 -1 -0 
1 -35 10 35 -0 -0 1 
1 -35 10 -35 -0 -1 -0 
1 -35 -10 35 1 0 0 
1 -15.000000000000004 10 35 -0 -1 -0 
1 -15.000000000000004 -10 35 0 0 -1 
1 -15.000000000000004 10 15.000000000000004 -0 -1 -0 
1 15.000000000000002 -10 15.000000000000002 1 -0 -5.7824115865893562e-17 
1 15.000000000000002 10 15.000000000000002 -0 -1 -0 
1 15.000000000000004 -10 35 8.6736173798840342e-17 -0 1 
1 15.000000000000004 10 35 -0 -1 -0 
1 35 -10 35 1 -0 -0 
1 35 10 35 -0 -1 -0 
1 35 -10 35 0 0 -1 
1 35 10 -35 -0 -1 -0 
1 35 60.000000000000007 0 0 0 -1 
1 35 10 0 -0 -1 -0 
2 10.000000000000005 35 -35 0 -0 1 1 0 0 -0 1 0 17.5
1 -15 60.000000000000007 -35 0.37139067635410372 0.9284766908852593 -0 
1 35 60.000000000000007 -35 1 -0 -0 
1 35 -10 -35 -1 0 0 
1 -15 60.000000000000007 -15.000000000000004 0 0 -1 
1 35 60.000000000000007 0 1 -0 -0 
2 10.000000000000005 35 0 0 0 1 1 0 -0 -0 1 0 17.5
1 -15 60.000000000000007 -15.000000000000004 0.37139067635410372 0.9284766908852593 -0 
Polygon3D 0
PolygonOnTriangulations 0
Surfaces 17
2 10.000000000000005 35 -50 -0 -0 1 1 0 0 -0 1 0 17.5
2 10.000000000000005 35 -50 -0 -0 1 1 0 0 -0 1 0 17.5
1 0 0 0 0 -0 1 1 0 0 -0 1 0 
1 35 10 -35 0 -0 1 1 0 0 -0 1 0 
1 0 10 0 0 1 0 0 -0 1 1 0 -0 
1 -15 10 0 -1 0 0 0 0 1 0 1 -0 
1 0 0 -15.000000000000004 0 0 -1 -1 0 -0 0 1 0 
1 -35 10 35 1 -0 0 0 0 -1 0 1 0 
1 -35 10 35 0 0 -1 -1 0 -0 0 1 0 
1 -15.000000000000004 10 35 -1 0 0 0 0 1 0 1 -0 
1 15.000000000000002 10 15.000000000000002 -5.7824115865893562e-17 0 -1 -1 0 5.7824115865893562e-17 0 1 0 
1 15.000000000000004 10 35 1 0 -8.6736173798840342e-17 -8.6736173798840342e-17 0 -1 0 1 0 
1 35 10 35 0 0 -1 -1 0 -0 0 1 0 
1 35 10 35 -1 0 0 0 0 1 0 1 -0 
1 35 60.000000000000007 0 0 1 0 0 -0 1 1 0 -0 
1 0 -10 0 0 1 0 0 -0 1 1 0 -0 
1 -15 60.000000000000007 -15.000000000000004 -0.9284766908852593 0.37139067635410378 0 -0.37139067635410378 -0.9284766908852593 0 0 0 1 
Triangulations 0

TShapes 110
Ve
1e-07
27.5 35 -35
0 0

0101101
*
Ve
1e-07
27.5 35 0
0 0

0101101
*
Ed
 1e-07 1 1 0
1  1 0 15 50
2  1 1 0 15 50
2  2 2 0 15 50
4 CN 1 0 2 0
0

0101000
+110 0 -109 0 *
Ve
1e-07
-7.5 35 0
0 0

0101101
*
Ed
 1e-07 1 1 0
1  2 0 3.14159265358979 6.28318530717959
2  3 1 0 3.14159265358979 6.28318530717959
4 C0 1 0 3 0
0

0101000
+107 0 -109 0 *
Ve
1e-07
-7.5 35 -35
0 0

0101101
*
Ed
 1e-07 1 1 0
1  3 0 15 50
2  4 1 0 15 50
2  5 2 0 15 50
4 CN 1 0 2 0
0

0101000
+105 0 -107 0 *
Ed
 1e-07 1 1 0
1  4 0 3.14159265358979 6.28318530717959
2  6 1 0 3.14159265358979 6.28318530717959
4 C0 1 0 4 0
0

0101000
+105 0 -110 0 *
Wi

0101100
+108 0 -106 0 -104 0 +103 0 *
Fa
0  1e-07 1 0

0111000
+102 0 *
Ve
1e-07
-15 10 0
0 0

0101101
*
Ve
1e-07
-15 10 -15
0 0

0101101
*
Ed
 1e-07 1 1 0
1  5 0 0 15
4 C0 5 0 6 0
0

0101000
+100 0 -99 0 *
Ve
1e-07
-35 10 -15
0 0

0101101
*
Ed
 1e-07 1 1 0
1  6 0 0 20
4 C0 5 0 7 0
0

0101000
+99 0 -97 0 *
Ve
1e-07
-35 10 35
0 0

0101101
*
Ed
 1e-07 1 1 0
1  7 0 -50 0
4 C0 5 0 8 0
0

0101000
+97 0 -95 0 *
Ve
1e-07
-15 10 35
0 0

0101101
*
Ed
 1e-07 1 1 0
1  8 0 0 20
4 C0 5 0 9 0
0

0101000
+95 0 -93 0 *
Ve
1e-07
-15 10 15
0 0

0101101
*
Ed
 1e-07 1 1 0
1  9 0 0 20
4 C0 5 0 10 0
0

0101000
+93 0 -91 0 *
Ve
1e-07
15 10 15
0 0

0101101
*
Ed
 1e-07 1 1 0
1  10 0 -30 0
4 C0 5 0 11 0
0

0101000
+91 0 -89 0 *
Ve
1e-07
15 10 35
0 0

0101101
*
Ed
 1e-07 1 1 0
1  11 0 -20 0
4 C0 5 0 12 0
0

0101000
+89 0 -87 0 *
Ve
1e-07
35 10 35
0 0

0101101
*
Ed
 1e-07 1 1 0
1  12 0 -20 0
4 C0 5 0 13 0
0

0101000
+87 0 -85 0 *
Ve
1e-07
35 10 0
0 0

0101101
*
Ed
 1e-07 1 1 0
1  13 0 0 35
4 C0 5 0 14 0
0

0101000
+85 0 -83 0 *
Ed
 1e-07 1 1 0
1  14 0 0 50
4 C0 5 0 3 0
0

0101000
+83 0 -100 0 *
Wi

0101100
+98 0 +96 0 +94 0 +92 0 +90 0 +88 0 +86 0 +84 0 +82 0 +81 0 
*
Fa
0  1e-07 5 0

0111000
+80 0 *
Ve
1e-07
-15 60 0
0 0

0101101
*
Ve
1e-07
-15 60 -15
0 0

0101101
*
Ed
 1e-07 1 1 0
1  15 0 0 15
4 C0 6 0 15 0
0

0101000
+78 0 -77 0 *
Ed
 1e-07 1 1 0
1  16 0 -50 -0
4 C0 6 0 7 0
0

0101000
+77 0 -99 0 *
Ed
 1e-07 1 1 0
1  17 0 0 50
4 C0 6 0 3 0
0

0101000
+100 0 -78 0 *
Wi

0101100
+76 0 +75 0 -98 0 +74 0 *
Fa
0  1e-07 6 0

0111000
+73 0 *
Ve
1e-07
-35 -10 -35
0 0

0101101
*
Ve
1e-07
-35 -10 35
0 0

0101101
*
Ed
 1e-07 1 1 0
1  18 0 -70 0
4 C0 8 0 16 0
0

0101000
+71 0 -70 0 *
Ed
 1e-07 1 1 0
1  19 0 -0 20
4 C0 8 0 9 0
0

0101000
+95 0 -70 0 *
Ve
1e-07
-35 10 -35
0 0

0101101
*
Ed
 1e-07 1 1 0
1  20 0 -70 -50
4 C0 8 0 17 0
0

0101000
+67 0 -97 0 *
Ed
 1e-07 1 1 0
1  21 0 -0 20
4 C0 8 0 4 0
0

0101000
+67 0 -71 0 *
Wi

0101100
+69 0 -68 0 -94 0 -66 0 +65 0 *
Fa
0  1e-07 8 0

0111000
-64 0 *
Ve
1e-07
-15 -10 35
0 0

0101101
*
Ed
 1e-07 1 1 0
1  22 0 0 20
4 C0 9 0 16 0
0

0101000
+70 0 -62 0 *
Ed
 1e-07 1 1 0
1  23 0 -0 20
4 C0 9 0 10 0
0

0101000
+93 0 -62 0 *
Wi

0101100
+61 0 -60 0 -92 0 +68 0 *
Fa
0  1e-07 9 0

0111000
-59 0 *
Ve
1e-07
-15 -10 15
0 0

0101101
*
Ed
 1e-07 1 1 0
1  24 0 0 20
4 C0 10 0 16 0
0

0101000
+62 0 -57 0 *
Ed
 1e-07 1 1 0
1  25 0 -0 20
4 C0 10 0 11 0
0

0101000
+91 0 -57 0 *
Wi

0101100
+56 0 -55 0 -90 0 +60 0 *
Fa
0  1e-07 10 0

0111000
-54 0 *
Ve
1e-07
15 -10 15
0 0

0101101
*
Ed
 1e-07 1 1 0
1  26 0 -30 0
4 C0 11 0 16 0
0

0101000
+57 0 -52 0 *
Ed
 1e-07 1 1 0
1  27 0 -0 20
4 C0 11 0 12 0
0

0101000
+89 0 -52 0 *
Wi

0101100
+51 0 -50 0 -88 0 +55 0 *
Fa
0  1e-07 11 0

0111000
-49 0 *
Ve
1e-07
15 -10 35
0 0

0101101
*
Ed
 1e-07 1 1 0
1  28 0 -20 0
4 C0 12 0 16 0
0

0101000
+52 0 -47 0 *
Ed
 1e-07 1 1 0
1  29 0 -0 20
4 C0 12 0 13 0
0

0101000
+87 0 -47 0 *
Wi

0101100
+46 0 -45 0 -86 0 +50 0 *
Fa
0  1e-07 12 0

0111000
-44 0 *
Ve
1e-07
35 -10 35
0 0

0101101
*
Ed
 1e-07 1 1 0
1  30 0 -20 0
4 C0 13 0 16 0
0

0101000
+47 0 -42 0 *
Ed
 1e-07 1 1 0
1  31 0 -0 20
4 C0 13 0 14 0
0

0101000
+85 0 -42 0 *
Wi

0101100
+41 0 -40 0 -84 0 +45 0 *
Fa
0  1e-07 13 0

0111000
-39 0 *
Ve
1e-07
35 -10 -35
0 0

0101101
*
Ed
 1e-07 1 1 0
1  32 0 0 70
4 C0 14 0 16 0
0

0101000
+42 0 -37 0 *
Ve
1e-07
35 60 -35
0 0

0101101
*
Ed
 1e-07 1 1 0
1  33 0 -50 20
4 C0 14 0 4 0
0

0101000
+35 0 -37 0 *
Ve
1e-07
35 60 0
0 0

0101101
*
Ed
 1e-07 1 1 0
1  34 0 0 35
4 C0 14 0 15 0
0

0101000
+33 0 -35 0 *
Ed
 1e-07 1 1 0
1  35 0 -50 -0
4 C0 14 0 3 0
0

0101000
+33 0 -83 0 *
Wi

0101100
+36 0 -34 0 -32 0 +31 0 -82 0 +40 0 *
Fa
0  1e-07 14 0

0111000
-30 0 *
Ed
 1e-07 1 1 0
1  36 0 0 3.14159265358979
2  7 2 0 0 3.14159265358979
4 C0 4 0 2 0
0

0101000
+110 0 -105 0 *
Wi

0101100
+28 0 +103 0 *
Ve
1e-07
-15 60 -35
0 0

0101101
*
Ed
 1e-07 1 1 0
1  37 0 -53.851648071345 0
4 C0 4 0 17 0
0

0101000
+67 0 -26 0 *
Ed
 1e-07 1 1 0
1  38 0 -50 0
4 C0 4 0 15 0
0

0101000
+26 0 -35 0 *
Ed
 1e-07 1 1 0
1  39 0 0 70
4 C0 4 0 16 0
0

0101000
+37 0 -71 0 *
Wi

0101100
-65 0 +25 0 +24 0 +34 0 +23 0 *
Fa
0  1e-07 4 0

0111000
-27 0 -22 0 *
Wi

0101100
-69 0 -23 0 -36 0 -41 0 -46 0 -51 0 -56 0 -61 0 *
Fa
0  1e-07 16 0

0111000
-20 0 *
Ed
 1e-07 1 1 0
1  40 0 0 20
4 C0 15 0 17 0
0

0101000
+77 0 -26 0 *
Ed
 1e-07 1 1 0
1  41 0 -50 0
4 C0 15 0 3 0
0

0101000
+78 0 -33 0 *
Wi

0101100
-24 0 -18 0 -76 0 +17 0 +32 0 *
Fa
0  1e-07 15 0

0111000
+16 0 *
Ed
 1e-07 1 1 0
1  42 0 0 3.14159265358979
2  8 2 0 0 3.14159265358979
4 C0 3 0 2 0
0

0101000
+109 0 -107 0 *
Wi

0101100
-14 0 -106 0 *
Wi

0101100
-31 0 -17 0 -74 0 -81 0 *
Fa
0  1e-07 3 0

0111000
+13 0 +12 0 *
Ed
 1e-07 1 1 0
1  43 0 -53.851648071345 0
4 C0 17 0 7 0
0

0101000
+97 0 -77 0 *
Wi

0101100
-25 0 +66 0 +10 0 +18 0 *
Fa
0  1e-07 17 0

0111000
+9 0 *
Wi

0101100
-96 0 -75 0 -10 0 *
Fa
0  1e-07 7 0

0111000
-7 0 *
Wi

0101100
-14 0 -108 0 +28 0 +104 0 *
Fa
0  1e-07 2 0

0111000
+5 0 *
Sh

0101100
-101 0 +79 0 +72 0 -63 0 -58 0 -53 0 -48 0 -43 0 -38 0 -29 0 
-21 0 -19 0 +15 0 +11 0 +8 0 -6 0 -4 0 *
So

0100000
+3 0 *
Co

1100000
+2 0 *

+1 0 