DBRep_DrawableShape

CASCADE Topology V1, (c) Matra-Datavision
Locations 0
Curve2ds 138
1 0 14.142135623730951 1 0 
1 0 0 1 0 
1 0 0 1 0 
1 0 0 1 0 
1 0 0 1 0 
1 6.2831853071795862 0 -1 0 
1 6.2831853071795862 0 -1 0 
1 6.2831853071795862 0 -1 0 
1 6.2831853071795862 0 -1 0 
1 0 0 1 0 
1 6.2831853071795862 10 -1 0 
1 0 0 0 -1 
1 6.2831853071795862 0 0 -1 
1 4.7123889803846897 0 0 -1 
1 4.7123889803846897 0 0 -1 
1 3.1415926535897931 0 -2.6645352591003756e-17 -1 
1 -1.3322676295501878e-15 -50 1 0 
1 0 -50 1 0 
1 6.2831853071795862 0 0 -1 
1 3.1415926535897931 0 -2.6645352591003756e-17 -1 
1 0 0 0 -1 
1 1.5707963267948966 0 0 -1 
1 0 -50 1 0 
1 0 -50 1 0 
1 1.5707963267948966 0 0 -1 
1 6.2831853071795862 30 -1 0 
1 6.2831853071795862 0 0 1 
1 0 0 0 1 
1 6.2831853071795862 30 -1 0 
1 6.2831853071795862 0 0 1 
1 0 0 0 1 
1 6.2831853071795862 30 -1 0 
1 6.2831853071795862 0 0 1 
1 0 0 0 1 
1 6.2831853071795862 30 -1 0 
1 6.2831853071795862 0 0 1 
1 0 0 0 1 
1 6.2831853071795862 0 0 1 
1 0 0 0 1 
1 0 150 1 0 
1 3.1415926535897931 6.2831853071795862 0 -1 
1 6.2831853071795862 1.5707963267948966 -1 0 
1 6.2831853071795862 20 -1 0 
1 6.2831853071795862 20 -1 0 
1 6.2831853071795862 20 -1 0 
1 6.2831853071795862 20 -1 0 
1 6.2831853071795862 0 -1 0 
1 6.2831853071795862 0 -1 0 
1 6.2831853071795862 0 -1 0 
1 6.2831853071795862 0 -1 0 
7 0 0  3 25 23  3.1415926535897931 0  3.16539259793517 8.8817841970012523e-16  3.2129924866259238 1.7763568394002505e-15  3.2843923196620559 8.8817841970012523e-16  3.355792152698188 2.6645352591003757e-15  3.4271919857343187 -2.6645352591003757e-15  3.4985918187704517 2.6645352591003757e-15  3.5699916518065828 8.8817841970012523e-16  3.641391484842714 1.7763568394002505e-15  3.712791317878847 8.8817841970012523e-16  3.7841911509149764 1.7763568394002505e-15  3.8555909839511098 0  3.9269908169872401 0  3.998390650023373 2.6645352591003757e-15  4.0697904830595029 -8.8817841970012523e-16  4.1411903160956376 0  4.2125901491317679 0  4.2839899821678999 0  4.3553898152040302 0  4.4267896482401632 0  4.4981894812762953 0  4.5695893143124255 0  4.6409891473485594 0  4.6885890360393123 0  4.7123889803846897 0 
 3.1415926535897931 4 3.2129924866259247 1 3.2843923196620564 1 3.355792152698188 1 3.4271919857343196 1 3.4985918187704517 1 3.5699916518065828 1 3.6413914848427149 1 3.7127913178788465 1 3.7841911509149782 1 3.8555909839511098 1 3.9269908169872414 1 3.998390650023373 1 4.0697904830595046 1 4.1411903160956367 1 4.2125901491317679 1 4.2839899821678999 1 4.3553898152040311 1 4.4267896482401632 1 4.4981894812762953 1 4.5695893143124264 1 4.6409891473485576 1 4.7123889803846897 4
7 0 0  3 25 23  3.1415926535897931 6.2831853071795862  3.16539259793517 6.2831853071795871  3.2129924866259238 6.283185307179588  3.2843923196620559 6.2831853071795871  3.355792152698188 6.2831853071795889  3.4271919857343187 6.2831853071795836  3.4985918187704517 6.2831853071795889  3.5699916518065828 6.2831853071795871  3.641391484842714 6.283185307179588  3.712791317878847 6.2831853071795871  3.7841911509149764 6.283185307179588  3.8555909839511098 6.2831853071795862  3.9269908169872401 6.2831853071795862  3.998390650023373 6.2831853071795889  4.0697904830595029 6.2831853071795853  4.1411903160956376 6.2831853071795862  4.2125901491317679 6.2831853071795862  4.2839899821678999 6.2831853071795862  4.3553898152040302 6.2831853071795862  4.4267896482401632 6.2831853071795862  4.4981894812762953 6.2831853071795862  4.5695893143124255 6.2831853071795862  4.6409891473485594 6.2831853071795862  4.6885890360393123 6.2831853071795862  4.7123889803846897 6.2831853071795862 
 3.1415926535897931 4 3.2129924866259247 1 3.2843923196620564 1 3.355792152698188 1 3.4271919857343196 1 3.4985918187704517 1 3.5699916518065828 1 3.6413914848427149 1 3.7127913178788465 1 3.7841911509149782 1 3.8555909839511098 1 3.9269908169872414 1 3.998390650023373 1 4.0697904830595046 1 4.1411903160956367 1 4.2125901491317679 1 4.2839899821678999 1 4.3553898152040311 1 4.4267896482401632 1 4.4981894812762953 1 4.5695893143124264 1 4.6409891473485576 1 4.7123889803846897 4
1 4.7123889803846897 0 0 1 
1 6.2831853071795862 0 -1 0 
1 6.2831853071795862 0 0 1 
1 0 0 0 1 
1 6.2831853071795862 3.1415926535897931 -1 0 
1 0 60 1 0 
1 6.2831853071795862 0 0 1 
1 0 0 0 1 
1 6.2831853071795862 0 0 1 
1 0 0 0 1 
1 6.2831853071795862 0 0 1 
1 0 0 0 1 
1 6.2831853071795862 0 0 1 
1 0 0 0 1 
1 6.2831853071795862 0 0 1 
1 0 0 0 1 
1 6.2831853071795862 140 -1 0 
1 6.2831853071795862 0 -1 0 
1 6.2831853071795862 0 0 1 
1 0 0 0 1 
1 0 150 1 0 
1 3.1415926535897931 3.1415926535897931 0 -1 
1 6.2831853071795862 14.142135623730951 -1 0 
1 6.2831853071795862 3.2155493553829296e-13 0 1 
1 0 3.2155493553829296e-13 0 1 
1 0 -3.1415926535897931 1 0 
1 0 3.1415926535897931 1 0 
1 4.7123889803846897 -6.2831853071795862 0 1 
1 9.4247779607693793 0 -1 0 
1 0 0 1 0 
1 0 0 1 0 
1 -2.2204460492503131e-16 0 1 0 
1 0 0 1 0 
1 6.2831853071795862 0 -1 0 
1 6.2831853071795862 0 -1 0 
1 6.2831853071795862 0 -1 0 
1 6.2831853071795862 0 -1 0 
1 6.2831853071795862 0 0 1 
1 0 0 0 1 
1 9.4247779607693793 90 -1 0 
1 6.2831853071795862 3.141592653589786 -1 1.1308638867425838e-15 
1 3.1415926535897931 90 -1 0 
1 6.2831853071795862 3.1415926535897931 -1 -1.1308638867425838e-15 
1 4.7123889803846897 0 0 -1 
1 4.7123889803846897 0 0 -1 
1 3.1415926535897931 0 -2.6645352591003756e-17 -1 
1 0 -50 1 0 
1 0 -50 1 0 
1 6.2831853071795862 0 0 -1 
1 3.1415926535897931 0 -2.6645352591003756e-17 -1 
1 0 0 0 -1 
1 1.5707963267948966 0 0 -1 
1 -2.2204460492503131e-16 -50 1 0 
1 0 -50 1 0 
1 1.5707963267948966 0 0 -1 
1 6.2831853071795862 30 -1 0 
1 6.2831853071795862 0 0 1 
1 0 0 0 1 
1 6.2831853071795862 30 -1 0 
1 6.2831853071795862 0 0 1 
1 0 0 0 1 
1 6.2831853071795862 30 -1 0 
1 6.2831853071795862 0 0 1 
1 0 0 0 1 
1 6.2831853071795862 30 -1 0 
1 6.2831853071795862 0 0 1 
1 0 0 0 1 
1 6.2831853071795862 2.6645352591003757e-15 0 1 
1 0 2.6645352591003757e-15 0 1 
1 6.2831853071795862 1.5707963267948966 -1 0 
1 6.2831853071795862 20 -1 0 
1 6.2831853071795862 20 -1 0 
1 6.2831853071795862 20 -1 0 
1 6.2831853071795862 20 -1 0 
1 6.2831853071795862 0 -1 0 
1 6.2831853071795862 0 -1 0 
1 6.2831853071795862 0 -1 0 
1 6.2831853071795862 0 -1 0 
1 6.2831853071795862 0 0 1 
1 0 0 0 1 
1 6.2831853071795862 0 0 1 
1 0 0 0 1 
1 6.2831853071795862 0 0 1 
1 0 0 0 1 
1 6.2831853071795862 0 0 1 
1 0 0 0 1 
Curves 119
2 0 1.8207999999999999e-13 410 0 4.4e-16 1 -1 0 0 0 -1 4.4e-16 115
1 -160 -180 410 1 0 0 
2 160 -160 410 -0 2.2e-16 1 1 0 0 0 1 -2.2e-16 20
1 180 -160 410 0 1 -2.2e-16 
2 160 160 410 -0 2.2e-16 1 1 0 0 0 1 -2.2e-16 20
1 160 180 410 -1 0 0 
2 -160 160 410 -0 2.2e-16 1 1 0 0 0 1 -2.2e-16 20
1 -180 160 410 0 -1 2.2e-16 
2 -160 -160 410 -0 2.2e-16 1 1 0 0 0 1 -2.2e-16 20
2 -130 130 410 -0 1.1e-16 1 1 0 0 0 1 -1.1e-16 30
2 -130 -130 410 -0 1.1e-16 1 1 0 0 0 1 -1.1e-16 30
2 130 130 410 -0 1.1e-16 1 1 0 0 0 1 -1.1e-16 30
2 130 -130 410 -0 1.1e-16 1 1 0 0 0 1 -1.1e-16 30
2 0 1.7763999999999999e-13 400 0 4.4e-16 1 -1 0 0 0 -1 4.4e-16 105
1 -105 1.7763999999999999e-13 400 0.70710678118654757 -3.0999999999980166e-16 -0.70710678118654757 
1 -160 -180 410 -0 -1.1e-16 -1 
1 -160 -180 360 1 0 0 
1 160 -180 410 -0 -1.1e-16 -1 
1 -180 -160 410 -0 -1.1e-16 -1 
2 -160 -160 360 -0 2.2e-16 1 1 0 0 0 1 -2.2e-16 20
2 160 -160 360 -0 2.2e-16 1 1 0 0 0 1 -2.2e-16 20
1 180 -160 410 -0 -1.1e-16 -1 
1 -180 160 410 -0 -1.1e-16 -1 
1 -180 160 360 0 -1 2.2e-16 
1 180 -160 360 0 1 -2.2e-16 
1 180 160 410 -0 -1.1e-16 -1 
1 -160 180 410 -0 -1.1e-16 -1 
2 -160 160 360 -0 2.2e-16 1 1 0 0 0 1 -2.2e-16 20
2 160 160 360 -0 2.2e-16 1 1 0 0 0 1 -2.2e-16 20
1 160 180 410 -0 -1.1e-16 -1 
1 160 180 360 -1 0 0 
2 -130 130 380 -0 1.1e-16 1 1 0 0 0 1 -1.1e-16 30
1 -100 130 410 0 -1.1e-16 -1 
2 -130 -130 380 -0 1.1e-16 1 1 0 0 0 1 -1.1e-16 30
1 -100 -130 410 0 -1.1e-16 -1 
2 130 130 380 -0 1.1e-16 1 1 0 0 0 1 -1.1e-16 30
1 160 130 410 0 -1.1e-16 -1 
2 130 -130 380 -0 1.1e-16 1 1 0 0 0 1 -1.1e-16 30
1 160 -130 410 0 -1.1e-16 -1 
1 -105 1.5636e-13 410 0 -3.2999999999999999e-16 -1 
2 0 1.3212e-13 260 -0 -3.2999999999999999e-16 -1 -1 0 0 0 1 -3.2999999999999999e-16 105
2 0 2.1648999999999999e-13 360 0 -2.2e-16 -1 1 -1.1e-16 2.4200000000000001e-32 -1.1e-16 -1 2.2e-16 155
2 -130 -130 360 -0 1.1e-16 1 1 0 0 0 1 -1.1e-16 15
2 130 -130 360 -0 1.1e-16 1 1 0 0 0 1 -1.1e-16 15
2 -130 130 360 -0 1.1e-16 1 1 0 0 0 1 -1.1e-16 15
2 130 130 360 -0 1.1e-16 1 1 0 0 0 1 -1.1e-16 15
2 -130 130 380 -0 1.1e-16 1 1 0 0 0 1 -1.1e-16 15
2 -130 -130 380 -0 1.1e-16 1 1 0 0 0 1 -1.1e-16 15
2 130 130 380 -0 1.1e-16 1 1 0 0 0 1 -1.1e-16 15
2 130 -130 380 -0 1.1e-16 1 1 0 0 0 1 -1.1e-16 15
2 260 1.3212e-13 260 0 -1 3.2999999999999999e-16 1 0 0 -0 3.2999999999999999e-16 1 365
2 260 4.5519999999999998e-14 4.5474999999999996e-13 -1 0 1.7999999999999999e-16 -1.7999999999999999e-16 -3.2999999999999999e-16 -1 5.9399999999999999e-32 -1 3.2999999999999999e-16 105
2 155 1.9646999999999999e-13 350 -1.1e-16 -1 2.2e-16 1 -1.1e-16 0 2.4200000000000001e-32 2.2e-16 1 10
2 0 2.1427e-13 350 0 -2.2e-16 -1 1 -1.1e-16 2.4200000000000001e-32 -1.1e-16 -1 2.2e-16 145
1 -115 -130 380 -8.9999999999999996e-17 -1.1e-16 -1 
1 145 -130 380 -8.9999999999999996e-17 -1.1e-16 -1 
1 -115 130 380 -8.9999999999999996e-17 -1.1e-16 -1 
1 145 130 380 -8.9999999999999996e-17 -1.1e-16 -1 
1 260 -1.517e-14 -105 1 0 0 
2 400 -1.08e-15 4.5474999999999996e-13 -1 3.2999999999999999e-16 0 4.6199999999999998e-32 1.4000000000000001e-16 -1 -3.2999999999999999e-16 -1 -1.4000000000000001e-16 105
1 145 1.7206999999999999e-13 410 0 -3.2999999999999999e-16 -1 
2 0 8.6600000000000005e-14 260 0 -3.2999999999999999e-16 -1 1 0 0 0 -1 3.2999999999999999e-16 145
2 410 -4.4100000000000003e-15 4.5474999999999996e-13 -1 3.2999999999999999e-16 0 4.6199999999999998e-32 1.4000000000000001e-16 -1 -3.2999999999999999e-16 -1 -1.4000000000000001e-16 115
1 400 1.388e-14 -105 0.70710678118654757 -1.2999999999991682e-16 -0.70710678118654757 
2 260 6.884e-14 260 0 -1 3.2999999999999999e-16 1 0 0 -0 3.2999999999999999e-16 1 115
2 260 0 4.5474999999999996e-13 -1 0 1.7999999999999999e-16 -1.7999999999999999e-16 -3.2999999999999999e-16 -1 5.9399999999999999e-32 -1 3.2999999999999999e-16 145
1 410 -180 160 -2.2e-16 -2.2e-16 -1 
2 410 -160 -160 1 -4.4e-16 -2.2e-16 -2.200000000000001e-16 -2.2e-16 -1 4.3999999999999995e-16 1 -2.200000000000001e-16 20
1 410 -160 -180 4.4e-16 1 -2.2e-16 
2 410 160 -160 1 -4.4e-16 -2.2e-16 -2.200000000000001e-16 -2.2e-16 -1 4.3999999999999995e-16 1 -2.200000000000001e-16 20
1 410 180 -160 2.2e-16 2.2e-16 1 
2 410 160 160 1 -4.4e-16 -2.2e-16 -2.200000000000001e-16 -2.2e-16 -1 4.3999999999999995e-16 1 -2.200000000000001e-16 20
1 410 160 180 -4.4e-16 -1 2.2e-16 
2 410 -160 160 1 -4.4e-16 -2.2e-16 -2.200000000000001e-16 -2.2e-16 -1 4.3999999999999995e-16 1 -2.200000000000001e-16 20
2 410 130 130 1 -4.4e-16 -1.1e-16 -1.100000000000001e-16 -2.2e-16 -1 4.4e-16 1 -2.2000000000000005e-16 30
2 410 -130 130 1 -4.4e-16 -1.1e-16 -1.100000000000001e-16 -2.2e-16 -1 4.4e-16 1 -2.2000000000000005e-16 30
2 410 130 -130 1 -4.4e-16 -1.1e-16 -1.100000000000001e-16 -2.2e-16 -1 4.4e-16 1 -2.2000000000000005e-16 30
2 410 -130 -130 1 -4.4e-16 -1.1e-16 -1.100000000000001e-16 -2.2e-16 -1 4.4e-16 1 -2.2000000000000005e-16 30
1 260 8.3809999999999998e-14 145 1 0 0 
2 350 1.998e-14 -3.8859999999999998e-14 -1 3.2999999999999999e-16 1.1e-16 -1.1000000000000011e-16 -3.4e-16 -1 -3.2999999999999994e-16 -1 3.4000000000000005e-16 145
2 350 1.998e-14 -3.8859999999999998e-14 -1 3.2999999999999999e-16 1.1e-16 -1.1000000000000011e-16 -3.4e-16 -1 -3.2999999999999994e-16 -1 3.4000000000000005e-16 145
1 410 -180 160 -1 4.4e-16 1.1e-16 
1 360 -180 160 -2.2e-16 -2.2e-16 -1 
1 410 -180 -160 -1 4.4e-16 1.1e-16 
1 410 -160 180 -1 4.4e-16 1.1e-16 
2 360 -160 160 1 -4.4e-16 -2.2e-16 -2.200000000000001e-16 -2.2e-16 -1 4.3999999999999995e-16 1 -2.200000000000001e-16 20
2 360 -160 -160 1 -4.4e-16 -2.2e-16 -2.200000000000001e-16 -2.2e-16 -1 4.3999999999999995e-16 1 -2.200000000000001e-16 20
1 410 -160 -180 -1 4.4e-16 1.1e-16 
1 410 160 180 -1 4.4e-16 1.1e-16 
1 360 160 180 -4.4e-16 -1 2.2e-16 
1 360 -160 -180 4.4e-16 1 -2.2e-16 
1 410 160 -180 -1 4.4e-16 1.1e-16 
1 410 180 160 -1 4.4e-16 1.1e-16 
2 360 160 160 1 -4.4e-16 -2.2e-16 -2.200000000000001e-16 -2.2e-16 -1 4.3999999999999995e-16 1 -2.200000000000001e-16 20
2 360 160 -160 1 -4.4e-16 -2.2e-16 -2.200000000000001e-16 -2.2e-16 -1 4.3999999999999995e-16 1 -2.200000000000001e-16 20
1 410 180 -160 -1 4.4e-16 1.1e-16 
1 360 180 -160 2.2e-16 2.2e-16 1 
2 380 130 130 1 -4.4e-16 -1.1e-16 -1.100000000000001e-16 -2.2e-16 -1 4.4e-16 1 -2.2000000000000005e-16 30
1 410 130 100 -1 4.4e-16 1.1e-16 
2 380 -130 130 1 -4.4e-16 -1.1e-16 -1.100000000000001e-16 -2.2e-16 -1 4.4e-16 1 -2.2000000000000005e-16 30
1 410 -130 100 -1 4.4e-16 1.1e-16 
2 380 130 -130 1 -4.4e-16 -1.1e-16 -1.100000000000001e-16 -2.2e-16 -1 4.4e-16 1 -2.2000000000000005e-16 30
1 410 130 -160 -1 4.4e-16 1.1e-16 
2 380 -130 -130 1 -4.4e-16 -1.1e-16 -1.100000000000001e-16 -2.2e-16 -1 4.4e-16 1 -2.2000000000000005e-16 30
1 410 -130 -160 -1 4.4e-16 1.1e-16 
2 350 -3.2229999999999999e-14 -155 -3.2999999999999999e-16 -1 3.4e-16 -1.1e-16 -3.3999999999999995e-16 -1 1 -3.3000000000000004e-16 -1.0999999999999989e-16 10
2 360 1.665e-14 -3.9969999999999999e-14 -1 3.2999999999999999e-16 1.1e-16 -1.1000000000000011e-16 -3.4e-16 -1 -3.2999999999999994e-16 -1 3.4000000000000005e-16 155
2 360 -130 130 1 -4.4e-16 -1.1e-16 -1.100000000000001e-16 -2.2e-16 -1 4.4e-16 1 -2.2000000000000005e-16 15
2 360 -130 -130 1 -4.4e-16 -1.1e-16 -1.100000000000001e-16 -2.2e-16 -1 4.4e-16 1 -2.2000000000000005e-16 15
2 360 130 130 1 -4.4e-16 -1.1e-16 -1.100000000000001e-16 -2.2e-16 -1 4.4e-16 1 -2.2000000000000005e-16 15
2 360 130 -130 1 -4.4e-16 -1.1e-16 -1.100000000000001e-16 -2.2e-16 -1 4.4e-16 1 -2.2000000000000005e-16 15
2 380 130 130 1 -4.4e-16 -1.1e-16 -1.100000000000001e-16 -2.2e-16 -1 4.4e-16 1 -2.2000000000000005e-16 15
2 380 -130 130 1 -4.4e-16 -1.1e-16 -1.100000000000001e-16 -2.2e-16 -1 4.4e-16 1 -2.2000000000000005e-16 15
2 380 130 -130 1 -4.4e-16 -1.1e-16 -1.100000000000001e-16 -2.2e-16 -1 4.4e-16 1 -2.2000000000000005e-16 15
2 380 -130 -130 1 -4.4e-16 -1.1e-16 -1.100000000000001e-16 -2.2e-16 -1 4.4e-16 1 -2.2000000000000005e-16 15
1 380 -130 115 -1 4.4e-16 2e-16 
1 380 -130 -145 -1 4.4e-16 2e-16 
1 380 130 115 -1 4.4e-16 2e-16 
1 380 130 -145 -1 4.4e-16 2e-16 
Polygon3D 0
PolygonOnTriangulations 0
Surfaces 54
1 6.5000000000000001e-16 7.428e-14 410 0 2.2e-16 1 0 -1 2.2e-16 1 0 -0 
3 0 1.7763999999999999e-13 400 -0 4.4e-16 1 -1 -0 0 0 -1 4.4e-16 105
0.78539816339699997
1 -160 -180 410 0 -1 1.1e-16 1 0 0 -0 1.1e-16 1 
2 160 -160 410 0 1.1e-16 1 1 0 -0 -0 1 -1.1e-16 20
1 180 -160 410 1 0 0 0 1 -1.1e-16 -0 1.1e-16 1 
2 160 160 410 0 1.1e-16 1 1 0 -0 -0 1 -1.1e-16 20
1 160 180 410 0 1 -1.1e-16 -1 0 0 0 1.1e-16 1 
2 -160 160 410 0 1.1e-16 1 1 0 -0 -0 1 -1.1e-16 20
1 -180 160 410 -1 0 0 0 -1 1.1e-16 0 1.1e-16 1 
2 -160 -160 410 0 1.1e-16 1 1 0 -0 -0 1 -1.1e-16 20
2 -130 130 410 -0 -1.1e-16 -1 1 -0 0 -0 -1 1.1e-16 30
2 -130 -130 410 -0 -1.1e-16 -1 1 -0 0 -0 -1 1.1e-16 30
2 130 130 410 -0 -1.1e-16 -1 1 -0 0 -0 -1 1.1e-16 30
2 130 -130 410 -0 -1.1e-16 -1 1 -0 0 -0 -1 1.1e-16 30
2 0 1.8207999999999999e-13 410 0 -3.2999999999999999e-16 -1 -1 -0 0 -0 1 -3.2999999999999999e-16 105
1 6.5000000000000001e-16 1.06581410364e-13 360 0 2.2e-16 1 1 0 -0 -0 1 -2.2e-16 
1 -130 130 380 0 1.1e-16 1 1 0 -0 -0 1 -1.1e-16 
1 -130 -130 380 0 1.1e-16 1 1 0 -0 -0 1 -1.1e-16 
1 130 130 380 0 1.1e-16 1 1 0 -0 -0 1 -1.1e-16 
1 130 -130 380 0 1.1e-16 1 1 0 -0 -0 1 -1.1e-16 
5 260 1.3212e-13 260 0 -1 3.2999999999999999e-16 1 0 0 -0 3.2999999999999999e-16 1 260 105
5 0 2.1427e-13 350 0 2.2e-16 1 1 -1.1e-16 2.4200000000000001e-32 1.1e-16 1 -2.2e-16 155 10
2 -130 -130 380 -0 -1.1e-16 -1 1 -0 0 -0 -1 1.1e-16 15
2 130 -130 380 -0 -1.1e-16 -1 1 -0 0 -0 -1 1.1e-16 15
2 -130 130 380 -0 -1.1e-16 -1 1 -0 0 -0 -1 1.1e-16 15
2 130 130 380 -0 -1.1e-16 -1 1 -0 0 -0 -1 1.1e-16 15
2 260 4.5519999999999998e-14 4.5474999999999996e-13 1 0 0 0 -3.2999999999999999e-16 -1 0 1 -3.2999999999999999e-16 105
2 0 1.3656e-13 410 0 -3.2999999999999999e-16 -1 1 0 0 0 -1 3.2999999999999999e-16 145
3 400 -1.08e-15 4.5474999999999996e-13 1 -3.2999999999999999e-16 0 4.6199999999999998e-32 1.4000000000000001e-16 -1 3.2999999999999999e-16 1 1.4000000000000001e-16 105
0.78539816339699997
5 260 8.6600000000000005e-14 260 0 -1 3.2999999999999999e-16 1 0 0 -0 3.2999999999999999e-16 1 260 145
1 410 -1.093e-13 7.0599999999999997e-14 1 -3.2999999999999999e-16 0 -3.2999999999999999e-16 -1 2.2e-16 -7.26e-32 -2.2e-16 -1 
2 260 0 4.5474999999999996e-13 1 0 0 -0 3.2999999999999999e-16 1 0 -1 3.2999999999999999e-16 145
1 410 -180 160 -4.4e-16 -1 2.2e-16 -1.1e-16 -2.1999999999999995e-16 -1 1 -4.4e-16 -1.099999999999999e-16 
2 410 -160 -160 1 -4.4e-16 -1.1e-16 -1.100000000000001e-16 -2.2e-16 -1 4.4e-16 1 -2.2000000000000005e-16 20
1 410 -160 -180 -1.1e-16 -2.2e-16 -1 4.4e-16 1 -2.2000000000000005e-16 1 -4.4e-16 -1.099999999999999e-16 
2 410 160 -160 1 -4.4e-16 -1.1e-16 -1.100000000000001e-16 -2.2e-16 -1 4.4e-16 1 -2.2000000000000005e-16 20
1 410 180 -160 4.4e-16 1 -2.2e-16 1.1e-16 2.1999999999999995e-16 1 1 -4.4e-16 -1.099999999999999e-16 
2 410 160 160 1 -4.4e-16 -1.1e-16 -1.100000000000001e-16 -2.2e-16 -1 4.4e-16 1 -2.2000000000000005e-16 20
1 410 160 180 1.1e-16 2.2e-16 1 -4.4e-16 -1 2.2000000000000005e-16 1 -4.4e-16 -1.099999999999999e-16 
2 410 -160 160 1 -4.4e-16 -1.1e-16 -1.100000000000001e-16 -2.2e-16 -1 4.4e-16 1 -2.2000000000000005e-16 20
2 410 130 130 -1 4.4e-16 1.1e-16 -1.100000000000001e-16 -2.2e-16 -1 -4.4e-16 -1 2.2000000000000005e-16 30
2 410 -130 130 -1 4.4e-16 1.1e-16 -1.100000000000001e-16 -2.2e-16 -1 -4.4e-16 -1 2.2000000000000005e-16 30
2 410 130 -130 -1 4.4e-16 1.1e-16 -1.100000000000001e-16 -2.2e-16 -1 -4.4e-16 -1 2.2000000000000005e-16 30
2 410 -130 -130 -1 4.4e-16 1.1e-16 -1.100000000000001e-16 -2.2e-16 -1 -4.4e-16 -1 2.2000000000000005e-16 30
5 350 1.998e-14 -3.8859999999999998e-14 1 -3.2999999999999999e-16 -1.1e-16 -1.1000000000000011e-16 -3.4e-16 -1 3.2999999999999994e-16 1 -3.4000000000000005e-16 155 10
1 360 -1.3065e-13 -8.6579999999999996e-14 1 -4.4e-16 -2.2e-16 -2.200000000000001e-16 -2.2e-16 -1 4.3999999999999995e-16 1 -2.200000000000001e-16 
1 380 130 130 1 -4.4e-16 -1.1e-16 -1.100000000000001e-16 -2.2e-16 -1 4.4e-16 1 -2.2000000000000005e-16 
1 380 -130 130 1 -4.4e-16 -1.1e-16 -1.100000000000001e-16 -2.2e-16 -1 4.4e-16 1 -2.2000000000000005e-16 
1 380 130 -130 1 -4.4e-16 -1.1e-16 -1.100000000000001e-16 -2.2e-16 -1 4.4e-16 1 -2.2000000000000005e-16 
1 380 -130 -130 1 -4.4e-16 -1.1e-16 -1.100000000000001e-16 -2.2e-16 -1 4.4e-16 1 -2.2000000000000005e-16 
2 380 -130 130 -1 4.4e-16 1.1e-16 -1.100000000000001e-16 -2.2e-16 -1 -4.4e-16 -1 2.2000000000000005e-16 15
2 380 -130 -130 -1 4.4e-16 1.1e-16 -1.100000000000001e-16 -2.2e-16 -1 -4.4e-16 -1 2.2000000000000005e-16 15
2 380 130 130 -1 4.4e-16 1.1e-16 -1.100000000000001e-16 -2.2e-16 -1 -4.4e-16 -1 2.2000000000000005e-16 15
2 380 130 -130 -1 4.4e-16 1.1e-16 -1.100000000000001e-16 -2.2e-16 -1 -4.4e-16 -1 2.2000000000000005e-16 15
Triangulations 0

TShapes 335
Ve
1e-07
-115 2.73e-13 410
0 0

0101101
*
Ed
 1e-07 1 1 0
1  1 0 0 6.28318530717959
2  1 2 0 0 6.28318530717959
4 C0 1 0 2 0
0

0101000
+335 0 -335 0 *
Wi

0101100
-334 0 *
Ve
1e-07
-160 -180 410
0 0

0101101
*
Ve
1e-07
160 -180 410
0 0

0101101
*
Ed
 1e-07 1 1 0
1  2 0 0 320
4 C0 1 0 3 0
0

0101000
+332 0 -331 0 *
Ve
1e-07
180 -160 410
0 0

0101101
*
Ed
 1e-07 1 1 0
1  3 0 4.71238898038469 6.28318530717959
2  2 4 0 4.71238898038469 6.28318530717959
4 C0 1 0 4 0
0

0101000
+331 0 -329 0 *
Ve
1e-07
180 160 410
0 0

0101101
*
Ed
 1e-07 1 1 0
1  4 0 0 320
4 C0 1 0 5 0
0

0101000
+329 0 -327 0 *
Ve
1e-07
160 180 410
0 0

0101101
*
Ed
 1e-07 1 1 0
1  5 0 0 1.5707963267949
2  3 6 0 0 1.5707963267949
4 C0 1 0 6 0
0

0101000
+327 0 -325 0 *
Ve
1e-07
-160 180 410
0 0

0101101
*
Ed
 1e-07 1 1 0
1  6 0 0 320
4 C0 1 0 7 0
0

0101000
+325 0 -323 0 *
Ve
1e-07
-180 160 410
0 0

0101101
*
Ed
 1e-07 1 1 0
1  7 0 1.5707963267949 3.14159265358979
2  4 8 0 1.5707963267949 3.14159265358979
4 C0 1 0 8 0
0

0101000
+323 0 -321 0 *
Ve
1e-07
-180 -160 410
0 0

0101101
*
Ed
 1e-07 1 1 0
1  8 0 0 320
4 C0 1 0 9 0
0

0101000
+321 0 -319 0 *
Ed
 1e-07 1 1 0
1  9 0 3.14159265358979 4.71238898038469
2  5 10 0 3.14159265358979 4.71238898038469
4 C0 1 0 10 0
0

0101000
+319 0 -332 0 *
Wi

0101100
+330 0 +328 0 +326 0 +324 0 +322 0 +320 0 +318 0 +317 0 *
Ve
1e-07
-100 130 410
0 0

0101101
*
Ed
 1e-07 1 1 0
1  10 0 0 6.28318530717959
2  6 11 0 0 6.28318530717959
4 C0 1 0 11 0
0

0101000
+315 0 -315 0 *
Wi

0101100
-314 0 *
Ve
1e-07
-100 -130 410
0 0

0101101
*
Ed
 1e-07 1 1 0
1  11 0 0 6.28318530717959
2  7 12 0 0 6.28318530717959
4 C0 1 0 12 0
0

0101000
+312 0 -312 0 *
Wi

0101100
-311 0 *
Ve
1e-07
160 130 410
0 0

0101101
*
Ed
 1e-07 1 1 0
1  12 0 0 6.28318530717959
2  8 13 0 0 6.28318530717959
4 C0 1 0 13 0
0

0101000
+309 0 -309 0 *
Wi

0101100
-308 0 *
Ve
1e-07
160 -130 410
0 0

0101101
*
Ed
 1e-07 1 1 0
1  13 0 0 6.28318530717959
2  9 14 0 0 6.28318530717959
4 C0 1 0 14 0
0

0101000
+306 0 -306 0 *
Wi

0101100
-305 0 *
Fa
0  1e-07 1 0

0111000
+333 0 +316 0 +313 0 +310 0 +307 0 +304 0 *
Ve
1e-07
-105 2.66e-13 400
0 0

0101101
*
Ed
 1e-07 1 1 0
1  14 0 0 6.28318530717959
2  10 2 0 0 6.28318530717959
2  11 15 0 0 6.28318530717959
4 C0 2 0 15 0
0

0101000
+302 0 -302 0 *
Ed
 1e-07 1 1 0
1  15 0 -14.142135623731 -2.73915999999825e-29
3  12 13CN 2 0 -14.142135623731 -2.73915999999825e-29
0

0101000
+335 0 -302 0 *
Wi

0101100
+301 0 -300 0 -334 0 +300 0 *
Fa
0  1e-07 2 0

0111000
+299 0 *
Ve
1e-07
-160 -180 360
0 0

0101101
*
Ed
 1e-07 1 1 0
1  16 0 -0 50
2  14 10 0 -0 50
4 G1 3 0 10 0
0

0101000
+332 0 -297 0 *
Ve
1e-07
160 -180 360
0 0

0101101
*
Ed
 1e-07 1 1 0
1  17 0 0 320
4 C0 3 0 16 0
0

0101000
+297 0 -295 0 *
Ed
 1e-07 1 1 0
1  18 0 -0 50
2  15 4 0 -0 50
4 G1 3 0 4 0
0

0101000
+331 0 -295 0 *
Wi

0101100
+296 0 +294 0 -293 0 -330 0 *
Fa
0  1e-07 3 0

0111000
+292 0 *
Ve
1e-07
-180 -160 360
0 0

0101101
*
Ed
 1e-07 1 1 0
1  19 0 -0 50
2  16 10 0 -0 50
4 G1 10 0 9 0
0

0101000
+319 0 -290 0 *
Ed
 1e-07 1 1 0
1  20 0 3.14159265358979 4.71238898038469
2  17 10 0 3.14159265358979 4.71238898038469
4 C0 10 0 16 0
0

0101000
+290 0 -297 0 *
Wi

0101100
+289 0 +288 0 -296 0 -317 0 *
Fa
0  1e-07 10 0

0111000
+287 0 *
Ve
1e-07
180 -160 360
0 0

0101101
*
Ed
 1e-07 1 1 0
1  21 0 4.71238898038469 6.28318530717959
2  18 4 0 4.71238898038469 6.28318530717959
4 C0 4 0 16 0
0

0101000
+295 0 -285 0 *
Ed
 1e-07 1 1 0
1  22 0 -0 50
2  19 4 0 -0 50
4 G1 4 0 5 0
0

0101000
+329 0 -285 0 *
Wi

0101100
+293 0 +284 0 -283 0 -328 0 *
Fa
0  1e-07 4 0

0111000
+282 0 *
Ve
1e-07
-180 160 360
0 0

0101101
*
Ed
 1e-07 1 1 0
1  23 0 -0 50
2  20 8 0 -0 50
4 G1 9 0 8 0
0

0101000
+321 0 -280 0 *
Ed
 1e-07 1 1 0
1  24 0 0 320
4 C0 9 0 16 0
0

0101000
+280 0 -290 0 *
Wi

0101100
+279 0 +278 0 -289 0 -318 0 *
Fa
0  1e-07 9 0

0111000
+277 0 *
Ve
1e-07
180 160 360
0 0

0101101
*
Ed
 1e-07 1 1 0
1  25 0 0 320
4 C0 5 0 16 0
0

0101000
+285 0 -275 0 *
Ed
 1e-07 1 1 0
1  26 0 -0 50
2  21 6 0 -0 50
4 G1 5 0 6 0
0

0101000
+327 0 -275 0 *
Wi

0101100
+283 0 +274 0 -273 0 -326 0 *
Fa
0  1e-07 5 0

0111000
+272 0 *
Ve
1e-07
-160 180 360
0 0

0101101
*
Ed
 1e-07 1 1 0
1  27 0 -0 50
2  22 8 0 -0 50
4 G1 8 0 7 0
0

0101000
+323 0 -270 0 *
Ed
 1e-07 1 1 0
1  28 0 1.5707963267949 3.14159265358979
2  23 8 0 1.5707963267949 3.14159265358979
4 C0 8 0 16 0
0

0101000
+270 0 -280 0 *
Wi

0101100
+269 0 +268 0 -279 0 -320 0 *
Fa
0  1e-07 8 0

0111000
+267 0 *
Ve
1e-07
160 180 360
0 0

0101101
*
Ed
 1e-07 1 1 0
1  29 0 0 1.5707963267949
2  24 6 0 0 1.5707963267949
4 C0 6 0 16 0
0

0101000
+275 0 -265 0 *
Ed
 1e-07 1 1 0
1  30 0 -0 50
2  25 6 0 -0 50
4 G1 6 0 7 0
0

0101000
+325 0 -265 0 *
Wi

0101100
+273 0 +264 0 -263 0 -324 0 *
Fa
0  1e-07 6 0

0111000
+262 0 *
Ed
 1e-07 1 1 0
1  31 0 0 320
4 C0 7 0 16 0
0

0101000
+265 0 -270 0 *
Wi

0101100
+263 0 +260 0 -269 0 -322 0 *
Fa
0  1e-07 7 0

0111000
+259 0 *
Ve
1e-07
-100 130 380
0 0

0101101
*
Ed
 1e-07 1 1 0
1  32 0 0 6.28318530717959
2  26 11 0 0 6.28318530717959
4 C0 11 0 17 0
0

0101000
+257 0 -257 0 *
Ed
 1e-07 1 1 0
1  33 0 0 30
3  27 28CN 11 0 0 30
0

0101000
+315 0 -257 0 *
Wi

0101100
+256 0 -255 0 -314 0 +255 0 *
Fa
0  1e-07 11 0

0111000
+254 0 *
Ve
1e-07
-100 -130 380
0 0

0101101
*
Ed
 1e-07 1 1 0
1  34 0 0 6.28318530717959
2  29 12 0 0 6.28318530717959
4 C0 12 0 18 0
0

0101000
+252 0 -252 0 *
Ed
 1e-07 1 1 0
1  35 0 0 30
3  30 31CN 12 0 0 30
0

0101000
+312 0 -252 0 *
Wi

0101100
+251 0 -250 0 -311 0 +250 0 *
Fa
0  1e-07 12 0

0111000
+249 0 *
Ve
1e-07
160 130 380
0 0

0101101
*
Ed
 1e-07 1 1 0
1  36 0 0 6.28318530717959
2  32 13 0 0 6.28318530717959
4 C0 13 0 19 0
0

0101000
+247 0 -247 0 *
Ed
 1e-07 1 1 0
1  37 0 0 30
3  33 34CN 13 0 0 30
0

0101000
+309 0 -247 0 *
Wi

0101100
+246 0 -245 0 -308 0 +245 0 *
Fa
0  1e-07 13 0

0111000
+244 0 *
Ve
1e-07
160 -130 380
0 0

0101101
*
Ed
 1e-07 1 1 0
1  38 0 0 6.28318530717959
2  35 14 0 0 6.28318530717959
4 C0 14 0 20 0
0

0101000
+242 0 -242 0 *
Ed
 1e-07 1 1 0
1  39 0 0 30
3  36 37CN 14 0 0 30
0

0101000
+306 0 -242 0 *
Wi

0101100
+241 0 -240 0 -305 0 +240 0 *
Fa
0  1e-07 14 0

0111000
+239 0 *
Ve
1e-07
-105 1.9e-13 260
0 0

0101101
*
Ed
 1e-07 1 1 0
1  40 0 10 150
3  38 39CN 15 0 10 150
0

0101000
+302 0 -237 0 *
Ed
 1e-07 1 1 0
1  41 0 0 6.28318530717959
2  40 15 0 0 6.28318530717959
2  41 21 0 0 6.28318530717959
4 G1 15 0 21 0
0

0101000
+237 0 -237 0 *
Wi

0101100
+236 0 -235 0 -236 0 -301 0 *
Fa
0  1e-07 15 0

0111000
+234 0 *
Ve
1e-07
155 3.19e-13 360
0 0

0101101
*
Ed
 1e-07 1 1 0
1  42 0 0 6.28318530717959
2  42 22 0 0 6.28318530717959
4 G1 16 0 22 0
0

0101000
+232 0 -232 0 *
Wi

0101100
+231 0 *
Wi

0101100
+294 0 +284 0 +274 0 +264 0 +260 0 +268 0 +278 0 +288 0 *
Ve
1e-07
-115 -130 360
0 0

0101101
*
Ed
 1e-07 1 1 0
1  43 0 0 6.28318530717959
2  43 23 0 0 6.28318530717959
4 C0 16 0 23 0
0

0101000
+228 0 -228 0 *
Wi

0101100
-227 0 *
Ve
1e-07
145 -130 360
0 0

0101101
*
Ed
 1e-07 1 1 0
1  44 0 0 6.28318530717959
2  44 24 0 0 6.28318530717959
4 C0 16 0 24 0
0

0101000
+225 0 -225 0 *
Wi

0101100
-224 0 *
Ve
1e-07
-115 130 360
0 0

0101101
*
Ed
 1e-07 1 1 0
1  45 0 0 6.28318530717959
2  45 25 0 0 6.28318530717959
4 C0 16 0 25 0
0

0101000
+222 0 -222 0 *
Wi

0101100
-221 0 *
Ve
1e-07
145 130 360
0 0

0101101
*
Ed
 1e-07 1 1 0
1  46 0 0 6.28318530717959
2  46 26 0 0 6.28318530717959
4 C0 16 0 26 0
0

0101000
+219 0 -219 0 *
Wi

0101100
-218 0 *
Fa
0  1e-07 16 0

0111000
+230 0 +229 0 +226 0 +223 0 +220 0 +217 0 *
Wi

0101100
+256 0 *
Ve
1e-07
-115 130 380
0 0

0101101
*
Ed
 1e-07 1 1 0
1  47 0 0 6.28318530717959
2  47 25 0 0 6.28318530717959
4 C0 17 0 25 0
0

0101000
+214 0 -214 0 *
Wi

0101100
-213 0 *
Fa
0  1e-07 17 0

0111000
+215 0 +212 0 *
Wi

0101100
+251 0 *
Ve
1e-07
-115 -130 380
0 0

0101101
*
Ed
 1e-07 1 1 0
1  48 0 0 6.28318530717959
2  48 23 0 0 6.28318530717959
4 C0 18 0 23 0
0

0101000
+209 0 -209 0 *
Wi

0101100
-208 0 *
Fa
0  1e-07 18 0

0111000
+210 0 +207 0 *
Wi

0101100
+246 0 *
Ve
1e-07
145 130 380
0 0

0101101
*
Ed
 1e-07 1 1 0
1  49 0 0 6.28318530717959
2  49 26 0 0 6.28318530717959
4 C0 19 0 26 0
0

0101000
+204 0 -204 0 *
Wi

0101100
-203 0 *
Fa
0  1e-07 19 0

0111000
+205 0 +202 0 *
Wi

0101100
+241 0 *
Ve
1e-07
145 -130 380
0 0

0101101
*
Ed
 1e-07 1 1 0
1  50 0 0 6.28318530717959
2  50 24 0 0 6.28318530717959
4 C0 20 0 24 0
0

0101000
+199 0 -199 0 *
Wi

0101100
-198 0 *
Fa
0  1e-07 20 0

0111000
+200 0 +197 0 *
Ve
1e-07
260 -1.3e-14 -105
0 0

0101101
*
Ed
 1e-07 1 1 0
1  51 0 3.14159265358979 4.71238898038469
3  51 52CN 21 0 3.14159265358979 4.71238898038469
0

0101000
+237 0 -195 0 *
Ed
 1e-07 1 1 0
1  52 0 0 6.28318530717959
2  53 21 0 0 6.28318530717959
2  54 27 0 0 6.28318530717959
4 G1 21 0 27 0
0

0101000
+195 0 -195 0 *
Wi

0101100
+194 0 +193 0 -194 0 +235 0 *
Fa
0  1e-07 21 0

0111000
+192 0 *
Ve
1e-07
145 3.14e-13 350
0 0

0101101
*
Ed
 1e-07 1 1 0
1  53 0 1.5707963267949 3.14159265358979
3  55 56CN 22 0 1.5707963267949 3.14159265358979
0

0101000
+232 0 -190 0 *
Ed
 1e-07 1 1 0
1  54 0 0 6.28318530717959
2  57 22 0 0 6.28318530717959
2  58 28 0 0 6.28318530717959
4 G1 22 0 28 0
0

0101000
+190 0 -190 0 *
Wi

0101100
-189 0 -231 0 +189 0 +188 0 *
Fa
0  1e-07 22 0

0111000
+187 0 *
Ed
 1e-07 1 1 0
1  55 0 -0 20
3  59 60CN 23 0 -0 20
0

0101000
+209 0 -228 0 *
Wi

0101100
+227 0 -185 0 -208 0 +185 0 *
Fa
0  1e-07 23 0

0111000
+184 0 *
Ed
 1e-07 1 1 0
1  56 0 -0 20
3  61 62CN 24 0 -0 20
0

0101000
+199 0 -225 0 *
Wi

0101100
+224 0 -182 0 -198 0 +182 0 *
Fa
0  1e-07 24 0

0111000
+181 0 *
Ed
 1e-07 1 1 0
1  57 0 -0 20
3  63 64CN 25 0 -0 20
0

0101000
+214 0 -222 0 *
Wi

0101100
+221 0 -179 0 -213 0 +179 0 *
Fa
0  1e-07 25 0

0111000
+178 0 *
Ed
 1e-07 1 1 0
1  58 0 -0 20
3  65 66CN 26 0 -0 20
0

0101000
+204 0 -219 0 *
Wi

0101100
+218 0 -176 0 -203 0 +176 0 *
Fa
0  1e-07 26 0

0111000
+175 0 *
Ve
1e-07
400 -9e-15 -105
0 0

0101101
*
Ed
 1e-07 1 1 0
1  59 0 0 140
3  67 68CN 27 0 0 140
0

0101000
+195 0 -173 0 *
Ed
 1e-07 1 1 0
1  60 0 0 6.28318530717959
2  69 27 0 0 6.28318530717959
2  70 29 0 0 6.28318530717959
4 C0 27 0 29 0
0

0101000
+173 0 -173 0 *
Wi

0101100
+172 0 +171 0 -172 0 -193 0 *
Fa
0  1e-07 27 0

0111000
+170 0 *
Ve
1e-07
145 2.31e-13 260
0 0

0101101
*
Ed
 1e-07 1 1 0
1  61 0 60 150
3  71 72CN 28 0 60 150
0

0101000
+190 0 -168 0 *
Ed
 1e-07 1 1 0
1  62 0 0 6.28318530717959
2  73 28 0 0 6.28318530717959
2  74 30 0 0 6.28318530717959
4 G1 28 0 30 0
0

0101000
+168 0 -168 0 *
Wi

0101100
-167 0 +188 0 +167 0 -166 0 *
Fa
0  1e-07 28 0

0111000
+165 0 *
Ve
1e-07
410 -1.4e-14 -115
0 0

0101101
*
Ed
 1e-07 1 1 0
1  63 0 0 6.28318530717959
2  75 29 0 0 6.28318530717959
4 C0 29 0 31 0
0

0101000
+163 0 -163 0 *
Ed
 1e-07 1 1 0
1  64 0 2.9743999999981e-30 14.142135623731
3  76 77CN 29 0 2.9743999999981e-30 14.142135623731
0

0101000
+173 0 -163 0 *
Wi

0101100
+162 0 -161 0 -171 0 +161 0 *
Fa
0  1e-07 29 0

0111000
+160 0 *
Ve
1e-07
260 1.29e-13 145
0 0

0101101
*
Ed
 1e-07 1 1 0
1  65 0 3.14159265358979 4.71238898038469
3  78 79CN 30 0 3.14159265358979 4.71238898038469
0

0101000
+168 0 -158 0 *
Ed
 1e-07 1 1 0
1  66 0 3.14159265358979 9.42477796076938
2  80 30 0 3.14159265358979 9.42477796076938
2  81 32 0 3.14159265358979 9.42477796076938
4 G1 30 0 32 0
0

0101000
+158 0 -158 0 *
Wi

0101100
+157 0 +156 0 -157 0 +166 0 *
Fa
0  1e-07 30 0

0111000
+155 0 *
Wi

0101100
+162 0 *
Ve
1e-07
410 -180 160
0 0

0101101
*
Ve
1e-07
410 -180 -160
0 0

0101101
*
Ed
 1e-07 1 1 0
1  67 0 -0 320
4 C0 31 0 33 0
0

0101000
+152 0 -151 0 *
Ve
1e-07
410 -160 -180
0 0

0101101
*
Ed
 1e-07 1 1 0
1  68 0 4.71238898038469 6.28318530717959
2  82 34 0 4.71238898038469 6.28318530717959
4 C0 31 0 34 0
0

0101000
+151 0 -149 0 *
Ve
1e-07
410 160 -180
0 0

0101101
*
Ed
 1e-07 1 1 0
1  69 0 0 320
4 C0 31 0 35 0
0

0101000
+149 0 -147 0 *
Ve
1e-07
410 180 -160
0 0

0101101
*
Ed
 1e-07 1 1 0
1  70 0 0 1.5707963267949
2  83 36 0 0 1.5707963267949
4 C0 31 0 36 0
0

0101000
+147 0 -145 0 *
Ve
1e-07
410 180 160
0 0

0101101
*
Ed
 1e-07 1 1 0
1  71 0 0 320
4 C0 31 0 37 0
0

0101000
+145 0 -143 0 *
Ve
1e-07
410 160 180
0 0

0101101
*
Ed
 1e-07 1 1 0
1  72 0 1.5707963267949 3.14159265358979
2  84 38 0 1.5707963267949 3.14159265358979
4 C0 31 0 38 0
0

0101000
+143 0 -141 0 *
Ve
1e-07
410 -160 180
0 0

0101101
*
Ed
 1e-07 1 1 0
1  73 0 0 320
4 C0 31 0 39 0
0

0101000
+141 0 -139 0 *
Ed
 1e-07 1 1 0
1  74 0 3.14159265358979 4.71238898038469
2  85 40 0 3.14159265358979 4.71238898038469
4 C0 31 0 40 0
0

0101000
+139 0 -152 0 *
Wi

0101100
+150 0 +148 0 +146 0 +144 0 +142 0 +140 0 +138 0 +137 0 *
Ve
1e-07
410 130 100
0 0

0101101
*
Ed
 1e-07 1 1 0
1  75 0 0 6.28318530717959
2  86 41 0 0 6.28318530717959
4 C0 31 0 41 0
0

0101000
+135 0 -135 0 *
Wi

0101100
-134 0 *
Ve
1e-07
410 -130 100
0 0

0101101
*
Ed
 1e-07 1 1 0
1  76 0 0 6.28318530717959
2  87 42 0 0 6.28318530717959
4 C0 31 0 42 0
0

0101000
+132 0 -132 0 *
Wi

0101100
-131 0 *
Ve
1e-07
410 130 -160
0 0

0101101
*
Ed
 1e-07 1 1 0
1  77 0 0 6.28318530717959
2  88 43 0 0 6.28318530717959
4 C0 31 0 43 0
0

0101000
+129 0 -129 0 *
Wi

0101100
-128 0 *
Ve
1e-07
410 -130 -160
0 0

0101101
*
Ed
 1e-07 1 1 0
1  78 0 0 6.28318530717959
2  89 44 0 0 6.28318530717959
4 C0 31 0 44 0
0

0101000
+126 0 -126 0 *
Wi

0101100
-125 0 *
Fa
0  1e-07 31 0

0111000
+153 0 +136 0 +133 0 +130 0 +127 0 +124 0 *
Ve
1e-07
350 -3.012e-12 145
0 0

0101101
*
Ed
 1e-07 1 1 0
1  79 0 0 90
3  90 91CN 32 0 0 90
0

0101000
+158 0 -122 0 *
Ve
1e-07
350 -2.2e-14 -145
0 0

0101101
*
Ed
 1e-07 1 1 0
1  80 0 3.14159265358979 6.28318530717959
2  92 32 0 3.14159265358979 6.28318530717959
2  93 45 0 3.14159265358979 6.28318530717959
4 G1 32 0 45 0
0

0101000
+122 0 -120 0 *
Ed
 1e-07 1 1 0
1  81 0 0 3.14159265358979
2  94 32 0 0 3.14159265358979
2  95 45 0 0 3.14159265358979
4 G1 32 0 45 0
0

0101000
+120 0 -122 0 *
Wi

0101100
-121 0 -156 0 +121 0 +119 0 +118 0 *
Fa
0  1e-07 32 0

0111000
+117 0 *
Ve
1e-07
360 -180 160
0 0

0101101
*
Ed
 1e-07 1 1 0
1  82 0 0 50
2  96 40 0 0 50
4 G1 33 0 40 0
0

0101000
+152 0 -115 0 *
Ve
1e-07
360 -180 -160
0 0

0101101
*
Ed
 1e-07 1 1 0
1  83 0 -0 320
4 C0 33 0 46 0
0

0101000
+115 0 -113 0 *
Ed
 1e-07 1 1 0
1  84 0 0 50
2  97 34 0 0 50
4 G1 33 0 34 0
0

0101000
+151 0 -113 0 *
Wi

0101100
+114 0 +112 0 -111 0 -150 0 *
Fa
0  1e-07 33 0

0111000
+110 0 *
Ve
1e-07
360 -160 180
0 0

0101101
*
Ed
 1e-07 1 1 0
1  85 0 0 50
2  98 40 0 0 50
4 G1 40 0 39 0
0

0101000
+139 0 -108 0 *
Ed
 1e-07 1 1 0
1  86 0 3.14159265358979 4.71238898038469
2  99 40 0 3.14159265358979 4.71238898038469
4 C0 40 0 46 0
0

0101000
+108 0 -115 0 *
Wi

0101100
+107 0 +106 0 -114 0 -137 0 *
Fa
0  1e-07 40 0

0111000
+105 0 *
Ve
1e-07
360 -160 -180
0 0

0101101
*
Ed
 1e-07 1 1 0
1  87 0 4.71238898038469 6.28318530717959
2  100 34 0 4.71238898038469 6.28318530717959
4 C0 34 0 46 0
0

0101000
+113 0 -103 0 *
Ed
 1e-07 1 1 0
1  88 0 0 50
2  101 34 0 0 50
4 G1 34 0 35 0
0

0101000
+149 0 -103 0 *
Wi

0101100
+111 0 +102 0 -101 0 -148 0 *
Fa
0  1e-07 34 0

0111000
+100 0 *
Ve
1e-07
360 160 180
0 0

0101101
*
Ed
 1e-07 1 1 0
1  89 0 0 50
2  102 38 0 0 50
4 G1 39 0 38 0
0

0101000
+141 0 -98 0 *
Ed
 1e-07 1 1 0
1  90 0 0 320
4 C0 39 0 46 0
0

0101000
+98 0 -108 0 *
Wi

0101100
+97 0 +96 0 -107 0 -138 0 *
Fa
0  1e-07 39 0

0111000
+95 0 *
Ve
1e-07
360 160 -180
0 0

0101101
*
Ed
 1e-07 1 1 0
1  91 0 0 320
4 C0 35 0 46 0
0

0101000
+103 0 -93 0 *
Ed
 1e-07 1 1 0
1  92 0 0 50
2  103 36 0 0 50
4 G1 35 0 36 0
0

0101000
+147 0 -93 0 *
Wi

0101100
+101 0 +92 0 -91 0 -146 0 *
Fa
0  1e-07 35 0

0111000
+90 0 *
Ve
1e-07
360 180 160
0 0

0101101
*
Ed
 1e-07 1 1 0
1  93 0 0 50
2  104 38 0 0 50
4 G1 38 0 37 0
0

0101000
+143 0 -88 0 *
Ed
 1e-07 1 1 0
1  94 0 1.5707963267949 3.14159265358979
2  105 38 0 1.5707963267949 3.14159265358979
4 C0 38 0 46 0
0

0101000
+88 0 -98 0 *
Wi

0101100
+87 0 +86 0 -97 0 -140 0 *
Fa
0  1e-07 38 0

0111000
+85 0 *
Ve
1e-07
360 180 -160
0 0

0101101
*
Ed
 1e-07 1 1 0
1  95 0 0 1.5707963267949
2  106 36 0 0 1.5707963267949
4 C0 36 0 46 0
0

0101000
+93 0 -83 0 *
Ed
 1e-07 1 1 0
1  96 0 0 50
2  107 36 0 0 50
4 G1 36 0 37 0
0

0101000
+145 0 -83 0 *
Wi

0101100
+91 0 +82 0 -81 0 -144 0 *
Fa
0  1e-07 36 0

0111000
+80 0 *
Ed
 1e-07 1 1 0
1  97 0 0 320
4 C0 37 0 46 0
0

0101000
+83 0 -88 0 *
Wi

0101100
+81 0 +78 0 -87 0 -142 0 *
Fa
0  1e-07 37 0

0111000
+77 0 *
Ve
1e-07
380 130 100
0 0

0101101
*
Ed
 1e-07 1 1 0
1  98 0 0 6.28318530717959
2  108 41 0 0 6.28318530717959
4 C0 41 0 47 0
0

0101000
+75 0 -75 0 *
Ed
 1e-07 1 1 0
1  99 0 0 30
3  109 110CN 41 0 0 30
0

0101000
+135 0 -75 0 *
Wi

0101100
+74 0 -73 0 -134 0 +73 0 *
Fa
0  1e-07 41 0

0111000
+72 0 *
Ve
1e-07
380 -130 100
0 0

0101101
*
Ed
 1e-07 1 1 0
1  100 0 0 6.28318530717959
2  111 42 0 0 6.28318530717959
4 C0 42 0 48 0
0

0101000
+70 0 -70 0 *
Ed
 1e-07 1 1 0
1  101 0 0 30
3  112 113CN 42 0 0 30
0

0101000
+132 0 -70 0 *
Wi

0101100
+69 0 -68 0 -131 0 +68 0 *
Fa
0  1e-07 42 0

0111000
+67 0 *
Ve
1e-07
380 130 -160
0 0

0101101
*
Ed
 1e-07 1 1 0
1  102 0 0 6.28318530717959
2  114 43 0 0 6.28318530717959
4 C0 43 0 49 0
0

0101000
+65 0 -65 0 *
Ed
 1e-07 1 1 0
1  103 0 0 30
3  115 116CN 43 0 0 30
0

0101000
+129 0 -65 0 *
Wi

0101100
+64 0 -63 0 -128 0 +63 0 *
Fa
0  1e-07 43 0

0111000
+62 0 *
Ve
1e-07
380 -130 -160
0 0

0101101
*
Ed
 1e-07 1 1 0
1  104 0 0 6.28318530717959
2  117 44 0 0 6.28318530717959
4 C0 44 0 50 0
0

0101000
+60 0 -60 0 *
Ed
 1e-07 1 1 0
1  105 0 0 30
3  118 119CN 44 0 0 30
0

0101000
+126 0 -60 0 *
Wi

0101100
+59 0 -58 0 -125 0 +58 0 *
Fa
0  1e-07 44 0

0111000
+57 0 *
Ve
1e-07
360 -3e-14 -155
0 0

0101101
*
Ed
 1e-07 1 1 0
1  106 0 1.5707963267949 3.14159265358979
3  120 121CN 45 0 1.5707963267949 3.14159265358979
0

0101000
+55 0 -120 0 *
Ed
 1e-07 1 1 0
1  107 0 0 6.28318530717959
2  122 45 0 0 6.28318530717959
4 G1 45 0 46 0
0

0101000
+55 0 -55 0 *
Wi

0101100
-54 0 -53 0 +54 0 +118 0 +119 0 *
Fa
0  1e-07 45 0

0111000
+52 0 *
Wi

0101100
+112 0 +102 0 +92 0 +82 0 +78 0 +86 0 +96 0 +106 0 *
Ve
1e-07
360 -130 115
0 0

0101101
*
Ed
 1e-07 1 1 0
1  108 0 0 6.28318530717959
2  123 51 0 0 6.28318530717959
4 C0 46 0 51 0
0

0101000
+49 0 -49 0 *
Wi

0101100
-48 0 *
Ve
1e-07
360 -130 -145
0 0

0101101
*
Ed
 1e-07 1 1 0
1  109 0 0 6.28318530717959
2  124 52 0 0 6.28318530717959
4 C0 46 0 52 0
0

0101000
+46 0 -46 0 *
Wi

0101100
-45 0 *
Ve
1e-07
360 130 115
0 0

0101101
*
Ed
 1e-07 1 1 0
1  110 0 0 6.28318530717959
2  125 53 0 0 6.28318530717959
4 C0 46 0 53 0
0

0101000
+43 0 -43 0 *
Wi

0101100
-42 0 *
Wi

0101100
+53 0 *
Ve
1e-07
360 130 -145
0 0

0101101
*
Ed
 1e-07 1 1 0
1  111 0 0 6.28318530717959
2  126 54 0 0 6.28318530717959
4 C0 46 0 54 0
0

0101000
+39 0 -39 0 *
Wi

0101100
-38 0 *
Fa
0  1e-07 46 0

0111000
+50 0 +47 0 +44 0 +41 0 +40 0 +37 0 *
Wi

0101100
+74 0 *
Ve
1e-07
380 130 115
0 0

0101101
*
Ed
 1e-07 1 1 0
1  112 0 0 6.28318530717959
2  127 53 0 0 6.28318530717959
4 C0 47 0 53 0
0

0101000
+34 0 -34 0 *
Wi

0101100
-33 0 *
Fa
0  1e-07 47 0

0111000
+35 0 +32 0 *
Wi

0101100
+69 0 *
Ve
1e-07
380 -130 115
0 0

0101101
*
Ed
 1e-07 1 1 0
1  113 0 0 6.28318530717959
2  128 51 0 0 6.28318530717959
4 C0 48 0 51 0
0

0101000
+29 0 -29 0 *
Wi

0101100
-28 0 *
Fa
0  1e-07 48 0

0111000
+30 0 +27 0 *
Wi

0101100
+64 0 *
Ve
1e-07
380 130 -145
0 0

0101101
*
Ed
 1e-07 1 1 0
1  114 0 0 6.28318530717959
2  129 54 0 0 6.28318530717959
4 C0 49 0 54 0
0

0101000
+24 0 -24 0 *
Wi

0101100
-23 0 *
Fa
0  1e-07 49 0

0111000
+25 0 +22 0 *
Wi

0101100
+59 0 *
Ve
1e-07
380 -130 -145
0 0

0101101
*
Ed
 1e-07 1 1 0
1  115 0 0 6.28318530717959
2  130 52 0 0 6.28318530717959
4 C0 50 0 52 0
0

0101000
+19 0 -19 0 *
Wi

0101100
-18 0 *
Fa
0  1e-07 50 0

0111000
+20 0 +17 0 *
Ed
 1e-07 1 1 0
1  116 0 0 20
3  131 132CN 51 0 0 20
0

0101000
+29 0 -49 0 *
Wi

0101100
+48 0 -15 0 -28 0 +15 0 *
Fa
0  1e-07 51 0

0111000
+14 0 *
Ed
 1e-07 1 1 0
1  117 0 0 20
3  133 134CN 52 0 0 20
0

0101000
+19 0 -46 0 *
Wi

0101100
+45 0 -12 0 -18 0 +12 0 *
Fa
0  1e-07 52 0

0111000
+11 0 *
Ed
 1e-07 1 1 0
1  118 0 0 20
3  135 136CN 53 0 0 20
0

0101000
+34 0 -43 0 *
Wi

0101100
+42 0 -9 0 -33 0 +9 0 *
Fa
0  1e-07 53 0

0111000
+8 0 *
Ed
 1e-07 1 1 0
1  119 0 0 20
3  137 138CN 54 0 0 20
0

0101000
+24 0 -39 0 *
Wi

0101100
+38 0 -6 0 -23 0 +6 0 *
Fa
0  1e-07 54 0

0111000
+5 0 *
Sh

0101100
+303 0 -298 0 +291 0 +286 0 +281 0 +276 0 +271 0 +266 0 +261 0 +258 0 
-253 0 -248 0 -243 0 -238 0 -233 0 -216 0 +211 0 +206 0 +201 0 +196 0 
-191 0 -186 0 -183 0 -180 0 -177 0 -174 0 -169 0 +164 0 -159 0 +154 0 
+123 0 +116 0 +109 0 +104 0 +99 0 +94 0 +89 0 +84 0 +79 0 +76 0 
-71 0 -66 0 -61 0 -56 0 -51 0 -36 0 +31 0 +26 0 +21 0 +16 0 
-13 0 -10 0 -7 0 -4 0 *
So

0100000
+3 0 *
Co

1100000
+2 0 *

+1 0 